<?xml version="1.0" standalone="no"?>
<!DOCTYPE svg PUBLIC "-//W3C//DTD SVG 20010904//EN"
 "http://www.w3.org/TR/2001/REC-SVG-20010904/DTD/svg10.dtd">
<svg version="1.0" xmlns="http://www.w3.org/2000/svg"
 width="1500.000000pt" height="935.000000pt" viewBox="0 0 1500.000000 935.000000"
 preserveAspectRatio="xMidYMid meet">
<metadata>
Created by potrace 1.16, written by Peter Selinger 2001-2019
</metadata>
<g transform="translate(0.000000,935.000000) scale(0.100000,-0.100000)"
fill="#000000" stroke="none">
<path d="M5710 7435 l0 -165 190 0 190 0 0 -1755 0 -1755 -190 0 -190 0 0
-160 0 -160 600 0 600 0 0 160 0 160 -220 0 -220 0 0 780 0 780 1015 0 1015 0
0 -780 0 -780 -205 0 -205 0 0 -160 0 -160 600 0 600 0 0 160 0 160 -210 0
-210 0 0 1755 0 1755 180 0 180 0 0 165 0 165 -570 0 -570 0 2 -162 3 -163
203 -3 202 -2 0 -795 0 -795 -1015 0 -1015 0 0 795 0 795 218 2 217 3 3 163 2
162 -600 0 -600 0 0 -165z"/>
</g>
</svg>
